<svg xmlns="http://www.w3.org/2000/svg" width="41.886" height="50.904" viewBox="0 0 41.886 50.904">
  <g id="Group_137" data-name="Group 137" transform="translate(0 0)">
    <g id="bill_icon" data-name="bill icon">
      <path id="Path_220" data-name="Path 220" d="M792.358,387.409a19.06,19.06,0,0,1,2.162.151,2.3,2.3,0,0,1,1.89,2.762,9.753,9.753,0,0,1-1.877,4.754,6.651,6.651,0,0,1-5.183,2.625c-3.314.085-6.631.031-9.946.025-5.265-.009-10.529-.032-15.794-.04a6.727,6.727,0,0,1-6.972-6.888q-.032-17.641-.005-35.28A2.387,2.387,0,0,1,759.192,353q10.564.012,21.127.036c.392,0,.786.026,1.177.066a.64.64,0,0,1,.634.721.756.756,0,0,1-.666.833,3.423,3.423,0,0,1-.563.018l-21.383-.033c-1.046,0-1.21.166-1.21,1.221q0,17.358,0,34.716a5.053,5.053,0,0,0,4.219,5.313,9.873,9.873,0,0,0,3.091-.168,2.676,2.676,0,0,0,1.929-1.827,11.593,11.593,0,0,0,.628-4.537c0-.308-.014-.615-.017-.923-.007-.753.287-1.063,1.046-1.062,2.051,0,4.1.023,6.153.025,5.093,0,10.186,0,15.36,0,0-.15,0-.346,0-.542q-.043-11.128-.085-22.255a2.477,2.477,0,0,1,.049-.659.805.805,0,0,1,1.578.135,5.1,5.1,0,0,1,.012.614q.045,11.127.088,22.254C792.358,387.1,792.358,387.251,792.358,387.409Zm-24.238,8.642c1.132,0,2.121,0,3.109,0,5.793.008,11.587.031,17.38.02a5.5,5.5,0,0,0,5.519-3.488,13.429,13.429,0,0,0,.668-2.461c.131-.63-.134-.925-.771-1.006a4.685,4.685,0,0,0-.563-.022q-10.483-.04-20.968-.077c-.883,0-1.767,0-2.616,0-.1,1.242-.155,2.434-.309,3.613A6.639,6.639,0,0,1,768.12,396.052Z" transform="translate(-756.626 -346.845)" fill="#546159"/>
      <path id="Path_221" data-name="Path 221" d="M1029.88,300a6.93,6.93,0,1,1,6.938,7.024A6.983,6.983,0,0,1,1029.88,300Zm1.643.022a5.287,5.287,0,1,0,5.236-5.392A5.349,5.349,0,0,0,1031.523,300.026Z" transform="translate(-1001.853 -292.99)" fill="#546159"/>
      <path id="Path_222" data-name="Path 222" d="M806.949,410.9c-.158,2.631-1.693,4.323-3.906,4.63a4.332,4.332,0,0,1-4.6-5.37,11.778,11.778,0,0,1,2.208-3.782c.41-.524.849-1.028,1.308-1.51a.825.825,0,0,1,1.3.012,18.145,18.145,0,0,1,3.119,4.36A12.879,12.879,0,0,1,806.949,410.9Zm-4.278-4.382a15.433,15.433,0,0,0-2.525,3.757,2.584,2.584,0,0,0-.217.99,2.735,2.735,0,0,0,1.767,2.531,2.581,2.581,0,0,0,2.809-.707,2.464,2.464,0,0,0,.428-2.982C804.26,408.9,803.469,407.769,802.671,406.514Z" transform="translate(-794.014 -393.109)" fill="#546159"/>
      <path id="Path_223" data-name="Path 223" d="M807.521,555.84c.766,0,1.392.006,2.017,0a.867.867,0,0,1,.888.473.853.853,0,0,1-.152.95q-1.674,2.328-3.343,4.66a.732.732,0,0,1-1.092.243.809.809,0,0,1-.187-1.173c.6-.853,1.21-1.694,1.817-2.541.2-.276.394-.554.665-.935-.742,0-1.393-.008-2.044,0-.429.007-.824-.016-1.031-.481a.99.99,0,0,1,.275-1.114c1.052-1.279,2.094-2.565,3.143-3.847.388-.475.849-.573,1.238-.274a.847.847,0,0,1,.031,1.3C809.041,553.978,808.33,554.848,807.521,555.84Z" transform="translate(-800.02 -525.102)" fill="#546159"/>
      <path id="Path_224" data-name="Path 224" d="M933.434,589.76h-6a3.452,3.452,0,0,1-.461-.011.765.765,0,0,1-.715-.747.745.745,0,0,1,.561-.818,1.853,1.853,0,0,1,.554-.062q6.05,0,12.1,0a2.96,2.96,0,0,1,.358.008.814.814,0,0,1,.764.865.789.789,0,0,1-.806.761c-.375.017-.752.007-1.127.007Z" transform="translate(-908.858 -557.847)" fill="#546159"/>
      <path id="Path_225" data-name="Path 225" d="M941.454,433.718c-1.931,0-3.862,0-5.793,0a.823.823,0,0,1-.927-.628.808.808,0,0,1,.85-1.011c.529-.02,1.059-.005,1.589-.005h9.946a3,3,0,0,1,.461.014.8.8,0,0,1,.721.85.777.777,0,0,1-.8.768c-.666.018-1.332.007-2,.008Z" transform="translate(-916.44 -417.805)" fill="#546159"/>
      <path id="Path_226" data-name="Path 226" d="M931.454,626.654c1.435,0,2.87-.009,4.3.005a.808.808,0,0,1,.854,1.042.832.832,0,0,1-.868.589c-2.886,0-5.774.008-8.66,0a.818.818,0,1,1,.013-1.628C928.551,626.647,930,626.654,931.454,626.654Z" transform="translate(-908.8 -592.428)" fill="#546159"/>
      <path id="Path_227" data-name="Path 227" d="M939.645,469.751c-1.3,0-2.594,0-3.89,0-.652,0-1.009-.3-1.005-.823s.365-.817,1.021-.817q3.942,0,7.884,0c.639,0,1.036.311,1.05.8s-.4.835-1.066.837C942.307,469.753,940.977,469.75,939.645,469.751Z" transform="translate(-916.48 -450.146)" fill="#546159"/>
      <path id="Path_228" data-name="Path 228" d="M1065.544,337.5l2.952-3.208a4.259,4.259,0,0,1,.318-.332.8.8,0,0,1,1.109-.025.78.78,0,0,1,.048,1.144c-.459.528-.944,1.033-1.417,1.548-.727.792-1.449,1.588-2.183,2.373a.888.888,0,0,1-1.389.129c-.457-.328-.917-.653-1.367-.991a.838.838,0,0,1-.257-1.241.864.864,0,0,1,1.235-.083C1064.9,337.026,1065.2,337.25,1065.544,337.5Z" transform="translate(-1031.738 -329.544)" fill="#546159"/>
    </g>
  </g>
</svg>
