<svg xmlns="http://www.w3.org/2000/svg" width="43.181" height="33.585" viewBox="0 0 43.181 33.585">
  <path id="Icon_awesome-id-card" data-name="Icon awesome-id-card" d="M39.583,2.25H3.6A3.6,3.6,0,0,0,0,5.848v1.2H43.181v-1.2A3.6,3.6,0,0,0,39.583,2.25ZM0,32.237a3.6,3.6,0,0,0,3.6,3.6H39.583a3.6,3.6,0,0,0,3.6-3.6V9.447H0ZM26.388,14.845a.6.6,0,0,1,.6-.6h10.8a.6.6,0,0,1,.6.6v1.2a.6.6,0,0,1-.6.6h-10.8a.6.6,0,0,1-.6-.6Zm0,4.8a.6.6,0,0,1,.6-.6h10.8a.6.6,0,0,1,.6.6v1.2a.6.6,0,0,1-.6.6h-10.8a.6.6,0,0,1-.6-.6Zm0,4.8a.6.6,0,0,1,.6-.6h10.8a.6.6,0,0,1,.6.6v1.2a.6.6,0,0,1-.6.6h-10.8a.6.6,0,0,1-.6-.6Zm-13.194-10.2a4.8,4.8,0,1,1-4.8,4.8A4.8,4.8,0,0,1,13.194,14.245ZM5.03,29.553A4.8,4.8,0,0,1,9.6,26.24h.615a7.722,7.722,0,0,0,5.967,0h.615a4.8,4.8,0,0,1,4.566,3.314,1.181,1.181,0,0,1-1.169,1.484H6.2A1.183,1.183,0,0,1,5.03,29.553Z" transform="translate(0 -2.25)" fill="#546159"/>
</svg>
